# xmcd
#
# Track frame offsets:
#	150
#	17732
#	33567
#	49885
#	67336
#
# Disc length: 1162 seconds
#
# Revision: 0
# Processed by: cddbd v1.5.2PL0 Copyright (c) Steve Scherf et al.
# Submitted via: EZCDAudioConverter 1.3.4.1
#
DISCID=45048805
DTITLE=ΑΓΓΕΛΙΚΗ ΠΑΠΠΑ - ΕΞΟΜΟΛΟΓΗΣΗ
DYEAR=1900
DGENRE=
TTITLE0=ΠΙΑΣΑΜΕ ΤΕΡΜΑ
TTITLE1=ΑΓΟΡΑΚΙ ΜΟΥ
TTITLE2=ΕΞΟΜΟΛΟΓΗΣΗ
TTITLE3=ΕΙΣΑΙ ΕΝΑ ΟΝΕΙΡΟ
TTITLE4=ΠΙΑΣΑΜΕ ΤΕΡΜΑ (DANCE MIX)
EXTD=
EXTT0=
EXTT1=
EXTT2=
EXTT3=
EXTT4=
PLAYORDER=
